<svg width="238" height="151" viewBox="0 0 238 151" fill="none" xmlns="http://www.w3.org/2000/svg">
<g clip-path="url(#clip0_240_31)">
<path d="M0.00878906 151H237.992V0H0.00878906V151Z" fill="black"/>
<path d="M2.76416 148.292H235.455V2.74866H2.76416V148.292Z" fill="white"/>
<path d="M54.0907 83.3688L58.5924 88.5264L63.2439 83.4031H66.9708V84.9862L61.1415 91.4277L66.9708 98.3149V83.4031H77.4923C79.4822 83.4031 82.4 84.3224 82.4 88.4454C82.4 94.2293 78.5607 94.2979 76.4582 94.2979H70.9944V99.898H63.2064L58.4487 94.4101L53.5753 99.8575H38.0898V83.3657H54.0907V83.3688ZM101.759 83.3688H115.03V86.9246H105.82V90.0129H114.774V93.1417H105.82V96.4077H115.03V99.8606H101.759V83.3688ZM88.3824 99.9011H84.3212V83.4062H94.8771C96.8733 83.4062 99.7504 84.2913 99.7504 87.8221C99.7504 89.8166 99.16 91.2844 96.9451 92.3907C98.8632 92.612 99.6036 93.8647 99.6036 96.5136L99.7504 99.9011H95.7986L95.6893 96.8783C95.6549 95.4821 95.0989 94.0829 93.6993 94.0829H88.3824V99.9011ZM140.515 89.7979C145.51 90.0472 145.922 92.5372 145.922 95.1861C145.922 98.2775 143.376 99.9354 140.718 99.9354H132.193V96.4046H138.837C139.965 96.4046 141.643 96.4046 141.643 94.8152C141.643 94.0611 141.346 93.5843 140.146 93.4534C139.214 93.363 138.28 93.2986 137.344 93.2602C132.836 93.1417 131.79 90.9073 131.79 88.1836C131.79 85.0922 133.967 83.4 136.626 83.4H145.151V86.9371H138.912C137.494 86.9558 135.96 86.7688 135.96 88.3737C135.96 89.3834 136.719 89.586 137.675 89.6826C138.006 89.6857 140.221 89.7979 140.515 89.7979ZM125.307 89.7979C130.3 90.0472 130.715 92.5372 130.715 95.1861C130.715 98.2775 128.166 99.9354 125.511 99.9354H116.982V96.4046H123.627C124.751 96.4046 126.435 96.4046 126.435 94.8152C126.435 94.0611 126.138 93.5843 124.939 93.4534C124.402 93.3786 122.427 93.2664 122.137 93.2602C117.629 93.1417 116.582 90.9073 116.582 88.1836C116.582 85.0922 118.76 83.4 121.415 83.4H129.943V86.9371H123.705C122.283 86.9558 120.753 86.7688 120.753 88.3737C120.753 89.3834 121.509 89.586 122.471 89.6826C122.799 89.6857 125.014 89.7979 125.307 89.7979ZM71.8067 71.5485H67.7455V55.0536H78.3014C80.2945 55.0536 83.1779 55.9387 83.1779 59.4695C83.1779 61.4608 82.5874 62.9349 80.3726 64.0381C82.2907 64.2593 83.031 65.5121 83.031 68.161L83.1779 71.5485H79.2292L79.1167 68.5287C79.0792 67.1295 78.5294 65.7334 77.1236 65.7334H71.8098L71.8067 71.5485ZM85.2459 71.5485H89.3039V55.0349H85.2459V71.5485ZM52.1508 55.0536H65.4182V58.6063H56.2181V61.7008H65.1651V64.8327H56.2181V68.0893H65.4182V71.5485H52.1508V55.0536ZM22.5201 71.5485H30.6955V59.3074L36.1186 71.5485H39.8111L45.3624 59.51V71.5485H49.4204V55.0536H42.9445L37.9618 66.1198L32.9978 55.0536H26.6312V70.9408L19.5429 55.0536H14.176L6.94092 71.5485H11.2239L12.8077 67.8681H20.9081L22.5201 71.5485ZM112.665 67.8774H104.568L102.981 71.5578H97.6261C93.1245 71.5578 91.1283 67.7933 91.2252 63.2278C91.3626 56.4529 95.3769 55.0443 97.2231 55.0443H102.521V58.6343H100.013C97.3169 58.6343 95.2144 58.9148 95.2144 62.7791V63.9757C95.2332 66.8833 96.7608 67.572 97.7386 67.7746C97.9791 67.8307 98.4227 67.8525 98.5852 67.84L100.341 67.8307L105.933 55.0536H111.306L118.225 70.5357V55.0443H124.22L131.068 66.4657V55.0443H135.126V71.5578H129.59L122.283 59.4788V71.5578H114.274L112.665 67.8774Z" fill="#00ACEC"/>
<path d="M145.185 80.832V7.41064H7.29053V64.1845L12.4607 52.5542H21.2452L24.1255 59.4725V52.5542H34.825L38.074 59.404L41.2479 52.5542H78.9696C80.4441 52.5542 82.4372 53.0715 83.3275 54.6889V52.5542H91.2249V55.0566C92.2589 53.6605 93.8084 52.5542 96.8324 52.5542H112.927L115.879 59.2513V52.5542H125.404L128.797 58.3724V52.5542H137.506V74.0508H128.134L124.22 67.7215V74.0508H112.337L110.418 69.8531H106.651L104.88 74.0508H97.4228C95.7984 73.9075 92.0371 73.2406 91.2249 70.7413V74.0508H76.9047V69.342C76.9047 68.6751 76.3143 67.868 75.502 67.868H73.9526V74.0508H43.4628V69.1924L41.176 74.0508H34.975L32.6133 69.1176V74.0508H20.433L18.8085 70.224H14.8942L13.1979 74.0508H7.29053V143.493H145.185V100.933C144.448 101.746 143.267 102.407 141.496 102.407H129.974V100.786C129.09 101.746 127.838 102.407 125.841 102.407H93.3648V97.9159C93.2898 97.3238 93.5866 96.0741 91.9621 96.0741H90.6345V102.407H81.9967V95.1112C81.1095 96.5915 79.1945 96.66 77.9387 96.7348H73.359V102.407H61.8441L58.5202 98.3553L54.9777 102.407H35.4186V80.832H55.2744L58.742 84.7337L62.2877 80.832H78.0106C79.1165 80.9006 81.2189 81.4179 81.9967 82.5959V80.832H95.4329C96.6137 80.832 98.9004 81.3431 99.8626 82.8888V80.832H116.691V82.7424C117.575 81.5675 118.981 80.832 121.118 80.832H131.896V82.6738C132.708 81.4927 134.851 80.832 136.107 80.832H145.185ZM183.135 78.956C183.135 81.714 172.61 78.6724 172.61 85.3788C172.61 88.4422 175.094 89.829 177.886 89.829C180.089 89.829 181.779 89.374 183.447 87.8251L184.047 89.402H189.354C189.051 88.8286 189.005 88.0807 189.005 87.2393V80.3397C189.005 76.8182 188.58 74.2285 181.582 74.2285C175.74 74.2285 173.51 76.0578 173.51 79.1804H179.155C179.295 77.9151 180.398 77.75 181.217 77.75C181.841 77.75 183.135 77.8902 183.135 78.956ZM213.674 87.4138V89.3864H218.948V69.1114H213.084V76.1232C211.838 74.6585 210.541 74.2098 208.679 74.2098C205.149 74.2098 202.413 77.3885 202.413 82.2905C202.413 86.4571 204.671 89.8071 209.129 89.8071C211.025 89.8071 212.294 89.2182 213.674 87.4138ZM200.891 79.2863V74.2939C200.638 74.2659 200.382 74.2098 200.126 74.2098C197.845 74.2098 196.402 75.3067 195.584 77.6191H195.527V74.6336H190.195V89.3833H196.062V83.5744C196.062 80.3926 197.277 79.2645 199.676 79.2645L200.891 79.2863ZM165.856 76.8244C165.656 74.7177 164.329 73.5055 162.242 73.5055C159.899 73.5055 158.487 75.5062 158.487 79.4172C158.487 82.2624 159.108 84.9332 162.492 84.9332C164.641 84.9332 165.656 83.4467 165.912 81.5021H172.316C171.729 86.7375 167.971 89.8851 162.613 89.8851C155.897 89.8851 151.83 85.7839 151.83 79.1897C151.83 72.6298 156.287 68.5474 161.964 68.5474C168.171 68.5474 171.645 71.617 172.182 76.8213H165.856V76.8244Z" fill="#00ACEC"/>
<path d="M70.9972 90.9167H76.0549C77.7137 90.9167 78.3042 89.9568 78.3042 88.8536C78.3042 88.0434 77.77 86.962 76.0705 86.962H70.9972V90.9167ZM51.3601 86.9246H42.1538V90.0129H51.1008V93.1417H42.1538V96.4077H51.51L55.9773 91.4309L52.0255 86.9402L51.3601 86.9246ZM88.382 90.6985H93.4397C95.0985 90.6985 95.689 89.9599 95.689 88.8536C95.689 88.0434 95.1548 86.962 93.4553 86.962H88.382V90.6985ZM71.8063 62.3459H76.864C78.526 62.3459 79.1133 61.6104 79.1133 60.5041C79.1133 59.697 78.5791 58.6063 76.8796 58.6063H71.8063V62.3459ZM19.3396 64.3185H14.3975L16.8216 58.5502L19.3396 64.3185ZM108.572 58.5595L106.154 64.3248H111.115L108.572 58.5595Z" fill="white"/>
<path d="M229.869 93.9052L180.195 143.455H187.249L229.869 100.942V93.9052Z" fill="#3B4095"/>
<path d="M229.869 107.77L194.1 143.455H201.147L229.869 114.81V107.77Z" fill="#00ACEC"/>
<path d="M229.869 121.638L207.992 143.455H215.052L229.869 128.671V121.638Z" fill="#6CB35E"/>
<path d="M150.23 135.652C150.232 134.623 150.437 133.604 150.834 132.655C151.231 131.705 151.811 130.842 152.543 130.117C153.274 129.391 154.141 128.816 155.095 128.424C156.049 128.033 157.071 127.833 158.102 127.836C159.131 127.835 160.151 128.037 161.102 128.429C162.053 128.822 162.917 129.398 163.644 130.123C164.372 130.849 164.949 131.711 165.342 132.66C165.736 133.609 165.938 134.625 165.937 135.652C165.942 136.681 165.742 137.702 165.351 138.654C164.959 139.607 164.383 140.473 163.655 141.203C162.927 141.933 162.062 142.512 161.109 142.908C160.156 143.303 159.134 143.507 158.102 143.508C157.068 143.509 156.043 143.307 155.088 142.913C154.132 142.518 153.263 141.94 152.532 141.21C151.801 140.48 151.221 139.613 150.826 138.66C150.431 137.706 150.228 136.684 150.23 135.652Z" fill="#00ACEC"/>
<path d="M164.991 135.652C164.991 134.75 164.813 133.856 164.467 133.022C164.121 132.189 163.614 131.431 162.974 130.793C162.334 130.155 161.575 129.649 160.739 129.305C159.903 128.96 159.007 128.783 158.102 128.783C157.196 128.781 156.299 128.957 155.461 129.301C154.624 129.645 153.862 130.15 153.221 130.788C152.579 131.426 152.07 132.184 151.722 133.019C151.375 133.853 151.196 134.748 151.195 135.652C151.195 137.477 151.922 139.227 153.216 140.517C154.509 141.808 156.264 142.533 158.093 142.533C159.922 142.533 161.677 141.808 162.97 140.517C164.264 139.227 164.991 137.477 164.991 135.652Z" fill="white"/>
<path d="M162.007 140.043H160.736L158.221 136.001H156.253V140.043H155.182V131.28H159.005C159.746 131.28 160.486 131.323 161.145 131.713C161.804 132.084 162.129 132.863 162.129 133.598C162.129 135.325 160.92 135.96 159.355 136.001L162.007 140.043Z" fill="#00ACEC"/>
<path d="M157.9 135.16C159.134 135.16 161.045 135.365 161.045 133.576C161.045 132.224 159.852 132.062 158.762 132.062H156.256V135.16H157.9ZM183.135 82.8701C183.15 85.6312 182.301 86.5038 180.242 86.5038C179.083 86.5038 178.377 85.9958 178.377 85.2666C178.38 83.3469 181.22 83.7988 183.135 82.8701ZM213.281 82.1503C213.281 83.8643 212.634 85.5814 210.601 85.5814C208.686 85.5814 208.292 83.7832 208.292 82.2313C208.292 80.6045 208.826 78.741 210.776 78.741C212.719 78.741 213.281 80.5142 213.281 82.1503Z" fill="white"/>
</g>
<defs>
<clipPath id="clip0_240_31">
<rect width="238" height="151" fill="white"/>
</clipPath>
</defs>
</svg>
