<svg width="252" height="151" viewBox="0 0 252 151" fill="none" xmlns="http://www.w3.org/2000/svg">
<g clip-path="url(#clip0_240_46)">
<path d="M241.92 0H10.08C4.51297 0 0 4.507 0 10.0667V140.933C0 146.493 4.51297 151 10.08 151H241.92C247.487 151 252 146.493 252 140.933V10.0667C252 4.507 247.487 0 241.92 0Z" fill="white"/>
<path d="M60.77 151H241.92C247.489 151 252 146.503 252 140.946V84.8066C252 84.8066 184.464 130.534 60.77 151Z" fill="#E6772F"/>
<path fill-rule="evenodd" clip-rule="evenodd" d="M46.0884 75.0521C44.1959 76.6678 41.7868 77.375 37.9362 77.375H36.3385V58.0973H37.9362C41.7868 58.0973 44.1027 58.7542 46.0884 60.4504C48.1347 62.2045 49.3644 64.9049 49.3644 67.7034C49.3644 70.512 48.1347 73.3131 46.0884 75.0521ZM39.1282 53.1571H30.3838V82.3152H39.0778C43.6995 82.3152 47.041 81.2632 49.9642 78.9429C53.4418 76.1921 55.5031 72.0422 55.5031 67.7437C55.5031 59.1367 48.7747 53.1571 39.1282 53.1571ZM58.2474 53.1571H64.177V82.3152H58.2474V53.1571ZM78.735 64.3336C75.1566 63.0778 74.1108 62.2448 74.1108 60.6668C74.1108 58.8347 75.9807 57.4455 78.5511 57.4455C80.3327 57.4455 81.8019 58.1275 83.3643 59.7935L86.4588 55.9128C83.9612 53.7935 80.7826 52.6436 77.5053 52.6739C72.1049 52.6739 67.9897 56.2627 67.9897 61.0091C67.9897 65.0383 69.9024 67.0843 75.4842 69.0247C77.8203 69.7998 79.0047 70.3308 79.6044 70.6882C80.7939 71.4231 81.3861 72.475 81.3861 73.6931C81.3861 76.0663 79.4205 77.8078 76.7619 77.8078C73.9319 77.8078 71.6437 76.4539 70.2729 73.912L66.4374 77.4605C69.1792 81.301 72.4653 83.0173 76.9962 83.0173C83.1702 83.0173 87.5223 79.0662 87.5223 73.4389C87.5223 68.8007 85.5063 66.6968 78.735 64.3336ZM89.3921 67.7437C89.3921 76.318 96.4355 82.962 105.5 82.962C108.058 82.962 110.248 82.4788 112.947 81.2632V74.5613C110.563 76.8515 108.469 77.7575 105.762 77.7575C99.772 77.7575 95.5283 73.6126 95.5283 67.7034C95.5283 62.1164 99.9081 57.6946 105.5 57.6946C108.322 57.6946 110.479 58.651 112.947 60.9739V54.2795C110.341 53.0212 108.201 52.5002 105.623 52.5002C96.6094 52.5002 89.3921 59.2726 89.3921 67.7437ZM161.152 72.7317L153.015 53.1571H146.528L159.461 83.0501H162.651L175.836 53.1571H169.4L161.152 72.7317ZM178.535 82.3152H195.408V77.375H184.489V69.5028H194.993V64.5651H184.489V58.0973H195.408V53.1571H178.535V82.3152ZM207.028 66.5659H205.302V57.7475H207.126C210.843 57.7475 212.834 59.2374 212.834 62.0762C212.834 64.9955 210.843 66.5659 207.028 66.5659ZM218.96 61.7591C218.96 56.3004 215.042 53.1571 208.175 53.1571H199.337V82.3152H205.302V70.5926H206.076L214.296 82.3152H221.614L212.015 70.0263C216.501 69.1505 218.96 66.2186 218.96 61.7591Z" fill="#1A1919"/>
<path fill-rule="evenodd" clip-rule="evenodd" d="M147.367 67.8116C147.367 76.2047 140.251 83.0098 131.463 83.0098C122.676 83.0098 115.56 76.2047 115.56 67.8116C115.56 59.416 122.676 52.611 131.461 52.611C140.251 52.611 147.367 59.416 147.367 67.8116Z" fill="#E6772F"/>
</g>
<defs>
<clipPath id="clip0_240_46">
<rect width="252" height="151" fill="white"/>
</clipPath>
</defs>
</svg>
