<svg width="236" height="151" viewBox="0 0 236 151" fill="none" xmlns="http://www.w3.org/2000/svg">
<g clip-path="url(#clip0_240_21)">
<mask id="mask0_240_21" style="mask-type:luminance" maskUnits="userSpaceOnUse" x="0" y="0" width="236" height="151">
<path d="M236 0H0V151H236V0Z" fill="white"/>
</mask>
<g mask="url(#mask0_240_21)">
<path d="M12.1026 0H223.897C230.582 0 236 5.40852 236 12.08V138.92C236 145.592 230.582 151 223.897 151H12.1026C5.41862 151 0 145.592 0 138.92V12.08C0 5.40852 5.41862 0 12.1026 0Z" fill="#253747"/>
<path d="M63.8569 141.048V132.309C63.8569 128.966 61.817 126.777 58.3148 126.777C56.5639 126.777 54.6602 127.354 53.351 129.255C52.331 127.66 50.869 126.777 48.676 126.777C47.214 126.777 45.7521 127.219 44.5963 128.814V127.066H41.5361V141.048H44.5963V133.327C44.5963 130.85 45.9052 129.679 47.945 129.679C49.9849 129.679 51.0052 130.986 51.0052 133.327V141.048H54.065V133.327C54.065 130.85 55.527 129.679 57.4141 129.679C59.454 129.679 60.4739 130.986 60.4739 133.327V141.048H63.8569ZM109.246 127.066H104.282V122.841H101.222V127.066H98.4515V129.832H101.222V136.246C101.222 139.453 102.531 141.336 106.033 141.336C107.342 141.336 108.804 140.895 109.824 140.318L108.94 137.688C108.056 138.265 107.036 138.417 106.305 138.417C104.843 138.417 104.265 137.535 104.265 136.093V129.832H109.229V127.066H109.246ZM135.222 126.761C133.471 126.761 132.298 127.643 131.567 128.797V127.049H128.507V141.031H131.567V133.157C131.567 130.833 132.587 129.509 134.491 129.509C135.069 129.509 135.8 129.662 136.395 129.798L137.279 126.879C136.667 126.761 135.8 126.761 135.222 126.761ZM95.9692 128.22C94.5075 127.202 92.4674 126.761 90.2744 126.761C86.7725 126.761 84.4437 128.508 84.4437 131.274C84.4437 133.599 86.1946 134.922 89.2544 135.346L90.7164 135.499C92.3146 135.788 93.1983 136.229 93.1983 136.958C93.1983 137.976 92.0253 138.706 89.9854 138.706C87.9455 138.706 86.3305 137.976 85.3105 137.247L83.8485 139.571C85.4467 140.742 87.6396 141.319 89.8323 141.319C93.9124 141.319 96.2585 139.419 96.2585 136.806C96.2585 134.328 94.3544 133.022 91.4474 132.58L89.9854 132.428C88.6765 132.275 87.6566 131.987 87.6566 131.121C87.6566 130.103 88.6765 129.526 90.2913 129.526C92.0426 129.526 93.7935 130.256 94.6773 130.697L95.9692 128.22ZM177.381 126.761C175.63 126.761 174.457 127.643 173.726 128.797V127.049H170.666V141.031H173.726V133.157C173.726 130.833 174.746 129.509 176.65 129.509C177.228 129.509 177.959 129.662 178.554 129.798L179.438 126.913C178.843 126.761 177.976 126.761 177.381 126.761ZM138.282 134.057C138.282 138.282 141.206 141.336 145.728 141.336C147.768 141.336 149.23 140.895 150.692 139.741L149.23 137.264C148.057 138.146 146.9 138.57 145.575 138.57C143.093 138.57 141.342 136.823 141.342 134.057C141.342 131.427 143.093 129.679 145.575 129.543C146.884 129.543 148.057 129.984 149.23 130.85L150.692 128.372C149.23 127.202 147.768 126.777 145.728 126.777C141.206 126.761 138.282 129.832 138.282 134.057ZM166.586 134.057V127.066H163.526V128.814C162.506 127.507 161.044 126.777 159.14 126.777C155.196 126.777 152.137 129.832 152.137 134.057C152.137 138.282 155.196 141.336 159.14 141.336C161.18 141.336 162.642 140.606 163.526 139.3V141.048H166.586V134.057ZM155.35 134.057C155.35 131.579 156.947 129.543 159.582 129.543C162.064 129.543 163.815 131.444 163.815 134.057C163.815 136.534 162.064 138.57 159.582 138.57C156.964 138.417 155.35 136.517 155.35 134.057ZM118.732 126.761C114.652 126.761 111.728 129.679 111.728 134.04C111.728 138.417 114.652 141.319 118.885 141.319C120.925 141.319 122.965 140.742 124.58 139.419L123.118 137.23C121.945 138.112 120.483 138.689 119.038 138.689C117.134 138.689 115.247 137.807 114.805 135.346H125.158C125.158 134.905 125.158 134.617 125.158 134.176C125.294 129.679 122.659 126.761 118.732 126.761ZM118.732 129.391C120.636 129.391 121.945 130.561 122.234 132.733H114.941C115.23 130.85 116.539 129.391 118.732 129.391ZM194.755 134.057V121.534H191.695V128.814C190.675 127.507 189.213 126.777 187.309 126.777C183.365 126.777 180.305 129.832 180.305 134.057C180.305 138.282 183.365 141.336 187.309 141.336C189.349 141.336 190.811 140.606 191.695 139.3V141.048H194.755V134.057ZM183.518 134.057C183.518 131.579 185.116 129.543 187.751 129.543C190.233 129.543 191.984 131.444 191.984 134.057C191.984 136.534 190.233 138.57 187.751 138.57C185.116 138.417 183.518 136.517 183.518 134.057ZM81.0776 134.057V127.066H78.0175V128.814C76.9976 127.507 75.5356 126.777 73.6318 126.777C69.6879 126.777 66.6278 129.832 66.6278 134.057C66.6278 138.282 69.6879 141.336 73.6318 141.336C75.6717 141.336 77.1337 140.606 78.0175 139.3V141.048H81.0776V134.057ZM69.7048 134.057C69.7048 131.579 71.3027 129.543 73.9377 129.543C76.4197 129.543 78.1706 131.444 78.1706 134.057C78.1706 136.534 76.4197 138.57 73.9377 138.57C71.3027 138.417 69.7048 136.517 69.7048 134.057Z" fill="white"/>
<path d="M140.916 20.8799H94.9482V103.311H140.916V20.8799Z" fill="#FF5A00"/>
<path d="M98.0084 62.0951C98.0084 45.3477 105.896 30.4838 118 20.8798C109.092 13.889 97.8553 9.66394 85.5984 9.66394C56.5628 9.66394 33.0693 33.1136 33.0693 62.0951C33.0693 91.0765 56.5628 114.526 85.5984 114.526C97.8553 114.526 109.092 110.302 118 103.311C105.879 93.8425 98.0084 78.8428 98.0084 62.0951Z" fill="#EB001B"/>
<path d="M202.933 62.0951C202.933 91.0765 179.439 114.526 150.404 114.526C138.147 114.526 126.91 110.302 118.002 103.311C130.259 93.6897 137.994 78.8428 137.994 62.0951C137.994 45.3477 130.106 30.4838 118.002 20.8798C126.893 13.889 138.13 9.66394 150.387 9.66394C179.439 9.66394 202.933 33.2664 202.933 62.0951Z" fill="#F79E1B"/>
</g>
</g>
<defs>
<clipPath id="clip0_240_21">
<rect width="236" height="151" fill="white"/>
</clipPath>
</defs>
</svg>
