<svg width="153" height="154" viewBox="0 0 153 154" fill="none" xmlns="http://www.w3.org/2000/svg">
<mask id="mask0_244_23" style="mask-type:alpha" maskUnits="userSpaceOnUse" x="0" y="0" width="153" height="154">
<rect y="0.666992" width="153" height="153" fill="#D9D9D9"/>
</mask>
<g mask="url(#mask0_244_23)">
<path d="M140.25 38.917V115.417C140.25 118.923 139.002 121.925 136.505 124.422C134.008 126.919 131.006 128.167 127.5 128.167H25.5C21.9937 128.167 18.9922 126.919 16.4953 124.422C13.9984 121.925 12.75 118.923 12.75 115.417V38.917C12.75 35.4107 13.9984 32.4092 16.4953 29.9123C18.9922 27.4154 21.9937 26.167 25.5 26.167H127.5C131.006 26.167 134.008 27.4154 136.505 29.9123C139.002 32.4092 140.25 35.4107 140.25 38.917ZM25.5 51.667H127.5V38.917H25.5V51.667ZM25.5 77.167V115.417H127.5V77.167H25.5Z" fill="white"/>
</g>
<mask id="mask1_244_23" style="mask-type:alpha" maskUnits="userSpaceOnUse" x="58" y="77" width="36" height="36">
<rect x="58" y="77" width="36" height="36" fill="#D9D9D9"/>
</mask>
<g mask="url(#mask1_244_23)">
<path d="M73.8997 101C73.8997 98.975 74.081 97.5188 74.4435 96.6313C74.806 95.7438 75.5747 94.775 76.7497 93.725C77.7747 92.825 78.556 92.0438 79.0935 91.3813C79.631 90.7188 79.8997 89.9625 79.8997 89.1125C79.8997 88.0875 79.556 87.2375 78.8685 86.5625C78.181 85.8875 77.2247 85.55 75.9997 85.55C74.7247 85.55 73.756 85.9375 73.0935 86.7125C72.431 87.4875 71.9622 88.275 71.6872 89.075L67.8247 87.425C68.3497 85.825 69.3122 84.4375 70.7122 83.2625C72.1122 82.0875 73.8747 81.5 75.9997 81.5C78.6247 81.5 80.6435 82.2312 82.056 83.6937C83.4685 85.1562 84.1747 86.9125 84.1747 88.9625C84.1747 90.2125 83.906 91.2813 83.3685 92.1688C82.831 93.0563 81.9872 94.0625 80.8372 95.1875C79.6122 96.3625 78.8685 97.2563 78.606 97.8688C78.3435 98.4813 78.2122 99.525 78.2122 101H73.8997ZM75.9997 110C75.1747 110 74.4685 109.706 73.881 109.119C73.2935 108.531 72.9997 107.825 72.9997 107C72.9997 106.175 73.2935 105.469 73.881 104.881C74.4685 104.294 75.1747 104 75.9997 104C76.8247 104 77.531 104.294 78.1185 104.881C78.706 105.469 78.9997 106.175 78.9997 107C78.9997 107.825 78.706 108.531 78.1185 109.119C77.531 109.706 76.8247 110 75.9997 110Z" fill="white"/>
</g>
</svg>
