<svg width="232" height="151" viewBox="0 0 232 151" fill="none" xmlns="http://www.w3.org/2000/svg">
<g clip-path="url(#clip0_240_52)">
<mask id="mask0_240_52" style="mask-type:luminance" maskUnits="userSpaceOnUse" x="0" y="0" width="232" height="151">
<path d="M232 0H0V151H232V0Z" fill="white"/>
</mask>
<g mask="url(#mask0_240_52)">
<path d="M11.8974 0H220.103C226.674 0 232 5.40852 232 12.08V138.92C232 145.592 226.674 151 220.103 151H11.8974C5.32678 151 0 145.592 0 138.92V12.08C0 5.40852 5.32678 0 11.8974 0Z" fill="#1434CB"/>
<path d="M145.691 43.2195C131.761 43.2195 119.312 50.5526 119.312 64.1013C119.312 79.6392 141.39 80.7122 141.39 88.518C141.39 91.8046 137.682 94.7467 131.348 94.7467C122.358 94.7467 115.64 90.6359 115.64 90.6359L112.765 104.308C112.765 104.308 120.505 107.78 130.78 107.78C146.011 107.78 157.995 100.087 157.995 86.3067C157.995 69.8885 135.825 68.8472 135.825 61.6022C135.825 59.0274 138.869 56.2064 145.185 56.2064C152.311 56.2064 158.125 59.1962 158.125 59.1962L160.939 45.9912C160.939 45.9912 154.613 43.2195 145.691 43.2195ZM18.2416 44.2161L17.9043 46.2093C17.9043 46.2093 23.7648 47.2986 29.0432 49.4718C35.8396 51.9633 36.3235 53.4141 37.4684 57.9193L49.941 106.753H66.6608L92.419 44.2161H75.7376L59.1865 86.735L52.4327 50.694C51.8131 46.5693 48.6757 44.2161 44.8355 44.2161H18.2416ZM99.1268 44.2161L86.0408 106.753H101.948L114.988 44.2161H99.1268ZM187.847 44.2161C184.011 44.2161 181.979 46.302 180.487 49.9465L157.182 106.753H173.864L177.091 97.285H197.414L199.377 106.753H214.096L201.255 44.2161H187.847ZM190.016 61.1115L194.961 84.5784H181.714L190.016 61.1115Z" fill="white"/>
</g>
</g>
<defs>
<clipPath id="clip0_240_52">
<rect width="232" height="151" fill="white"/>
</clipPath>
</defs>
</svg>
