<svg width="222" height="222" viewBox="0 0 222 222" fill="none" xmlns="http://www.w3.org/2000/svg">
<mask id="mask0_213_197" style="mask-type:alpha" maskUnits="userSpaceOnUse" x="0" y="0" width="222" height="222">
<rect width="221.332" height="221.332" fill="#D9D9D9"/>
</mask>
<g mask="url(#mask0_213_197)">
<path d="M100.983 117.121L87.6105 103.98C85.9197 102.289 83.8063 101.444 81.2702 101.444C78.7341 101.444 76.5439 102.366 74.6994 104.21C73.0087 105.901 72.1633 108.053 72.1633 110.666C72.1633 113.279 73.0087 115.431 74.6994 117.121L94.5271 136.949C96.3715 138.794 98.5234 139.716 100.983 139.716C103.442 139.716 105.594 138.794 107.438 136.949L146.632 97.7549C148.477 95.9105 149.361 93.7587 149.284 91.2994C149.207 88.8402 148.323 86.6883 146.632 84.8439C144.788 82.9995 142.598 82.0388 140.062 81.962C137.525 81.8851 135.335 82.7689 133.491 84.6134L100.983 117.121ZM75.1605 200.582L61.7884 177.988L36.4274 172.455C34.1219 171.993 32.2775 170.802 30.8941 168.881C29.5108 166.96 28.9728 164.846 29.2802 162.541L31.8163 136.488L14.5248 116.66C12.9878 114.97 12.2192 112.972 12.2192 110.666C12.2192 108.36 12.9878 106.362 14.5248 104.672L31.8163 84.8439L29.2802 58.7913C28.9728 56.4857 29.5108 54.3723 30.8941 52.4511C32.2775 50.5298 34.1219 49.3386 36.4274 48.8775L61.7884 43.3442L75.1605 20.7498C76.3902 18.7517 78.0809 17.4068 80.2327 16.7151C82.3846 16.0235 84.5364 16.1388 86.6882 17.061L110.666 27.2054L134.644 17.061C136.795 16.1388 138.947 16.0235 141.099 16.7151C143.251 17.4068 144.942 18.7517 146.171 20.7498L159.543 43.3442L184.904 48.8775C187.21 49.3386 189.054 50.5298 190.438 52.4511C191.821 54.3723 192.359 56.4857 192.052 58.7913L189.515 84.8439L206.807 104.672C208.344 106.362 209.113 108.36 209.113 110.666C209.113 112.972 208.344 114.97 206.807 116.66L189.515 136.488L192.052 162.541C192.359 164.846 191.821 166.96 190.438 168.881C189.054 170.802 187.21 171.993 184.904 172.455L159.543 177.988L146.171 200.582C144.942 202.58 143.251 203.925 141.099 204.617C138.947 205.308 136.795 205.193 134.644 204.271L110.666 194.127L86.6882 204.271C84.5364 205.193 82.3846 205.308 80.2327 204.617C78.0809 203.925 76.3902 202.58 75.1605 200.582Z" fill="#0FB422"/>
</g>
</svg>
