<svg width="445" height="69" viewBox="0 0 445 69" fill="none" xmlns="http://www.w3.org/2000/svg">
<path d="M53.7195 18.2604H56.1781L63.185 11.2372L63.5292 8.25541C59.5152 4.70427 54.6643 2.23741 49.4346 1.08787C44.205 -0.0616675 38.7693 0.144061 33.6411 1.68562C28.5128 3.22719 23.8613 6.05369 20.1259 9.89814C16.3905 13.7426 13.6946 18.478 12.2927 23.6572C13.0733 23.3365 13.938 23.2845 14.7513 23.5093L28.7651 21.1929C28.7651 21.1929 29.4781 20.0101 29.8469 20.084C32.8496 16.7786 36.9993 14.7486 41.4464 14.4095C45.8935 14.0705 50.3018 15.4482 53.7687 18.2604H53.7195Z" fill="#EA4335"/>
<path d="M73.167 23.6572C71.5564 17.7124 68.2496 12.3681 63.6523 8.28003L53.8181 18.1372C55.8676 19.8158 57.5101 21.9389 58.6217 24.3465C59.7333 26.7541 60.2849 29.3833 60.2349 32.0357V33.7854C61.3843 33.7854 62.5225 34.0123 63.5844 34.4532C64.6463 34.8941 65.6111 35.5403 66.4239 36.3549C67.2366 37.1695 67.8813 38.1366 68.3212 39.201C68.761 40.2654 68.9874 41.4062 68.9874 42.5582C68.9874 43.7103 68.761 44.8511 68.3212 45.9155C67.8813 46.9798 67.2366 47.947 66.4239 48.7616C65.6111 49.5762 64.6463 50.2224 63.5844 50.6633C62.5225 51.1042 61.3843 51.3311 60.2349 51.3311H42.73L40.9844 53.1054V63.6279L42.73 65.3775H60.2349C65.1231 65.4157 69.8938 63.8758 73.8411 60.9856C77.7885 58.0954 80.7029 54.0085 82.1533 49.3294C83.6037 44.6503 83.513 39.6276 81.8946 35.0042C80.2762 30.3808 77.2161 26.4022 73.167 23.6572Z" fill="#4285F4"/>
<path d="M25.2002 65.279H42.7051V51.2325H25.2002C23.953 51.2323 22.7205 50.9633 21.5861 50.444L19.1275 51.2079L12.0714 58.2311L11.4568 60.6954C15.4137 63.6903 20.2419 65.3005 25.2002 65.279Z" fill="#34A853"/>
<path d="M25.2004 19.7143C20.4574 19.7427 15.8416 21.2552 11.9979 24.0406C8.15411 26.826 5.27426 30.7451 3.76056 35.2506C2.24686 39.7562 2.1749 44.6231 3.55473 49.1716C4.93456 53.7201 7.69727 57.7231 11.457 60.6214L21.6109 50.4439C20.3205 49.8596 19.1909 48.9702 18.3189 47.8521C17.4468 46.7339 16.8585 45.4204 16.6042 44.0243C16.35 42.6281 16.4375 41.191 16.8593 39.8362C17.281 38.4813 18.0243 37.2493 19.0256 36.2458C20.0268 35.2422 21.2559 34.4971 22.6076 34.0744C23.9593 33.6517 25.3931 33.564 26.786 33.8188C28.1789 34.0737 29.4893 34.6634 30.6049 35.5374C31.7204 36.4115 32.6077 37.5438 33.1907 38.8371L43.3446 28.6596C41.2134 25.867 38.4665 23.6064 35.3189 22.0545C32.1713 20.5027 28.7081 19.7017 25.2004 19.7143Z" fill="#FBBC05"/>
<path d="M129.787 55.4711C126.774 55.5096 123.783 54.9379 120.995 53.7904C118.207 52.6429 115.678 50.9431 113.561 48.7929C111.377 46.7339 109.644 44.2424 108.472 41.4765C107.299 38.7106 106.713 35.7307 106.751 32.7257C106.715 29.721 107.301 26.7415 108.474 23.9758C109.646 21.2102 111.378 18.7185 113.561 16.6586C115.668 14.4861 118.192 12.7635 120.98 11.5946C123.769 10.4257 126.765 9.83469 129.787 9.85716C132.668 9.81869 135.526 10.3544 138.198 11.4332C140.87 12.512 143.301 14.1123 145.35 16.1411L140.974 20.6014C137.977 17.6984 133.955 16.1035 129.787 16.1657C127.626 16.1391 125.482 16.5635 123.493 17.412C121.503 18.2605 119.712 19.5145 118.232 21.0943C116.694 22.6236 115.481 24.449 114.666 26.4607C113.85 28.4723 113.449 30.6286 113.487 32.7997C113.469 34.9459 113.88 37.0741 114.695 39.059C115.509 41.0439 116.712 42.8453 118.232 44.3572C121.277 47.3983 125.385 49.1283 129.683 49.179C133.981 49.2296 138.129 47.5968 141.244 44.6282C143.173 42.5114 144.356 39.8193 144.613 36.9643H129.861V30.6557H150.734C150.94 31.9263 151.022 33.2136 150.98 34.5C151.11 37.1624 150.7 39.8236 149.774 42.3226C148.849 44.8216 147.428 47.1066 145.596 49.0393C143.56 51.1644 141.099 52.8355 138.376 53.9437C135.652 55.0519 132.725 55.5723 129.787 55.4711ZM178.32 51.2818C175.518 53.9733 171.788 55.4759 167.907 55.4759C164.027 55.4759 160.297 53.9733 157.495 51.2818C156.101 49.9268 155.003 48.2961 154.271 46.4931C153.539 44.6902 153.188 42.7544 153.242 40.8086C153.19 38.8629 153.541 36.9276 154.273 35.1249C155.005 33.3222 156.102 31.6913 157.495 30.3354C160.3 27.6496 164.029 26.1508 167.907 26.1508C171.786 26.1508 175.515 27.6496 178.32 30.3354C179.713 31.6913 180.81 33.3222 181.542 35.1249C182.274 36.9276 182.625 38.8629 182.573 40.8086C182.623 42.7562 182.269 44.6931 181.533 46.4961C180.796 48.2992 179.694 49.9289 178.295 51.2818H178.32ZM162.093 47.1664C162.838 47.964 163.739 48.5998 164.739 49.0344C165.739 49.4691 166.817 49.6934 167.907 49.6934C168.998 49.6934 170.076 49.4691 171.076 49.0344C172.076 48.5998 172.977 47.964 173.722 47.1664C174.534 46.3248 175.171 45.3287 175.593 44.2367C176.015 43.1448 176.215 41.9792 176.181 40.8086C176.217 39.6341 176.018 38.4642 175.596 37.368C175.173 36.2718 174.536 35.2715 173.722 34.4261C172.967 33.6367 172.061 33.0085 171.057 32.5794C170.054 32.1503 168.974 31.9291 167.883 31.9291C166.792 31.9291 165.712 32.1503 164.709 32.5794C163.705 33.0085 162.799 33.6367 162.044 34.4261C161.23 35.2715 160.592 36.2718 160.17 37.368C159.748 38.4642 159.549 39.6341 159.585 40.8086C159.554 41.9809 159.758 43.1476 160.184 44.2396C160.611 45.3316 161.252 46.3268 162.068 47.1664H162.093ZM210.33 51.2818C207.529 53.9733 203.798 55.4759 199.918 55.4759C196.038 55.4759 192.307 53.9733 189.506 51.2818C188.112 49.9268 187.014 48.2961 186.281 46.4931C185.549 44.6902 185.199 42.7544 185.253 40.8086C185.2 38.8629 185.551 36.9276 186.284 35.1249C187.016 33.3222 188.113 31.6913 189.506 30.3354C192.307 27.6439 196.038 26.1413 199.918 26.1413C203.798 26.1413 207.529 27.6439 210.33 30.3354C211.723 31.6913 212.82 33.3222 213.552 35.1249C214.285 36.9276 214.636 38.8629 214.583 40.8086C214.637 42.7544 214.287 44.6902 213.555 46.4931C212.822 48.2961 211.724 49.9268 210.33 51.2818ZM194.103 47.1664C194.849 47.964 195.749 48.5998 196.749 49.0344C197.749 49.4691 198.828 49.6934 199.918 49.6934C201.008 49.6934 202.087 49.4691 203.087 49.0344C204.087 48.5998 204.987 47.964 205.732 47.1664C206.545 46.3248 207.181 45.3287 207.603 44.2367C208.025 43.1448 208.225 41.9792 208.191 40.8086C208.227 39.6341 208.028 38.4642 207.606 37.368C207.184 36.2718 206.547 35.2715 205.732 34.4261C204.978 33.6367 204.071 33.0085 203.068 32.5794C202.064 32.1503 200.984 31.9291 199.893 31.9291C198.802 31.9291 197.723 32.1503 196.719 32.5794C195.716 33.0085 194.809 33.6367 194.054 34.4261C193.24 35.2715 192.603 36.2718 192.181 37.368C191.758 38.4642 191.56 39.6341 191.596 40.8086C191.565 41.9809 191.768 43.1476 192.195 44.2396C192.621 45.3316 193.262 46.3268 194.079 47.1664H194.103ZM231.375 68.6304C228.428 68.7243 225.539 67.8023 223.188 66.0182C221.101 64.4457 219.458 62.3568 218.419 59.9561L224.024 57.615C224.634 59.0497 225.589 60.311 226.802 61.2868C228.102 62.3365 229.732 62.887 231.4 62.8393C232.458 62.9038 233.517 62.7391 234.505 62.3564C235.494 61.9736 236.389 61.3819 237.128 60.6214C238.61 58.8306 239.341 56.5342 239.169 54.2143V52.095H238.948C238.011 53.2104 236.828 54.0917 235.492 54.6691C234.156 55.2466 232.705 55.5043 231.252 55.4218C229.406 55.4274 227.579 55.0492 225.887 54.3112C224.194 53.5732 222.673 52.4913 221.418 51.1339C220.057 49.7874 218.983 48.178 218.26 46.4033C217.537 44.6285 217.182 42.7252 217.214 40.8086C217.18 38.8808 217.535 36.9659 218.257 35.1789C218.98 33.392 220.055 31.7696 221.418 30.4093C222.669 29.0463 224.19 27.959 225.883 27.2166C227.576 26.4742 229.404 26.0928 231.252 26.0968C232.816 26.0941 234.361 26.4391 235.776 27.1072C237 27.6429 238.091 28.4422 238.972 29.4482H239.194V27.1072H245.291V53.3518C245.451 55.4279 245.187 57.515 244.515 59.4853C243.843 61.4557 242.777 63.2678 241.382 64.8107C240.053 66.085 238.483 67.0795 236.764 67.7355C235.045 68.3915 233.213 68.6958 231.375 68.6304ZM231.818 49.7047C232.868 49.7278 233.91 49.519 234.87 49.0931C235.83 48.6672 236.685 48.0347 237.374 47.2404C238.891 45.498 239.691 43.2429 239.611 40.9318C239.703 38.5817 238.903 36.284 237.374 34.5C236.686 33.7044 235.832 33.0709 234.871 32.6449C233.91 32.2189 232.868 32.0109 231.818 32.0357C230.739 32.0135 229.668 32.2218 228.676 32.6467C227.685 33.0716 226.794 33.7034 226.065 34.5C224.438 36.2199 223.555 38.5135 223.606 40.8825C223.581 42.0445 223.786 43.2001 224.207 44.2827C224.629 45.3653 225.261 46.3537 226.065 47.1911C226.791 47.9954 227.679 48.6356 228.671 49.0689C229.663 49.5023 230.736 49.7191 231.818 49.7047ZM256.133 11.5082V54.5839H249.716V11.5082H256.133ZM273.736 55.4711C271.815 55.5206 269.903 55.1719 268.122 54.4468C266.341 53.7217 264.729 52.6358 263.386 51.2572C262.023 49.8886 260.952 48.2567 260.238 46.4606C259.524 44.6644 259.181 42.7415 259.231 40.8086C259.158 38.8709 259.475 36.9384 260.164 35.1264C260.853 33.3143 261.898 31.6598 263.238 30.2614C264.501 28.9269 266.028 27.8716 267.722 27.1629C269.415 26.4542 271.238 26.1079 273.073 26.1461C274.76 26.1282 276.433 26.4552 277.99 27.1072C279.392 27.6745 280.67 28.5117 281.751 29.5714C282.68 30.4698 283.504 31.4701 284.21 32.5532C284.78 33.4678 285.266 34.4329 285.66 35.4364L286.324 37.1122L266.656 45.2197C267.251 46.5896 268.246 47.7467 269.51 48.5385C270.773 49.3303 272.247 49.7197 273.736 49.6554C275.185 49.6593 276.61 49.2868 277.873 48.5742C279.135 47.8616 280.192 46.8332 280.94 45.5893L285.857 48.9161C284.602 50.7155 282.996 52.2413 281.137 53.4011C278.925 54.8017 276.352 55.5214 273.736 55.4711ZM265.525 40.365L278.604 34.9189C278.201 33.9587 277.481 33.1668 276.564 32.6764C275.537 32.0952 274.375 31.7976 273.195 31.8139C271.195 31.8659 269.295 32.7072 267.91 34.155C267.08 34.9503 266.437 35.9193 266.024 36.9928C265.612 38.0663 265.442 39.2178 265.525 40.365Z" fill="#E1E1E1"/>
<path d="M319.933 55.471C317.204 55.5182 314.494 55.0122 311.965 53.9834C309.436 52.9545 307.14 51.4241 305.216 49.4839C303.292 47.5437 301.778 45.2337 300.767 42.6927C299.756 40.1517 299.267 37.4321 299.33 34.6971C299.267 31.9621 299.756 29.2424 300.767 26.7015C301.778 24.1605 303.292 21.8505 305.216 19.9103C307.14 17.9701 309.436 16.4396 311.965 15.4108C314.494 14.3819 317.204 13.8759 319.933 13.9232C322.695 13.8366 325.441 14.3768 327.966 15.5033C330.49 16.6299 332.728 18.3136 334.512 20.4289L330.972 23.8789C329.662 22.2275 327.982 20.9094 326.068 20.0316C324.154 19.1537 322.061 18.7411 319.958 18.8271C317.933 18.7814 315.92 19.1464 314.04 19.9002C312.16 20.654 310.451 21.781 309.017 23.2135C307.525 24.7168 306.36 26.5129 305.594 28.4891C304.829 30.4653 304.479 32.5789 304.567 34.6971C304.479 36.8153 304.829 38.9289 305.594 40.9051C306.36 42.8813 307.525 44.6774 309.017 46.1807C310.451 47.6132 312.16 48.7402 314.04 49.494C315.92 50.2478 317.933 50.6128 319.958 50.5671C322.307 50.5935 324.632 50.0888 326.761 49.0904C328.889 48.0921 330.765 46.6259 332.25 44.8007L335.791 48.3492C333.937 50.571 331.61 52.3478 328.98 53.5489C326.146 54.8604 323.054 55.5173 319.933 55.471Z" fill="#E1E1E1"/>
<path d="M345.305 54.584H340.216V14.7858H345.305V54.584Z" fill="#E1E1E1"/>
<path d="M353.615 30.631C356.282 27.9765 359.888 26.4867 363.646 26.4867C367.404 26.4867 371.01 27.9765 373.677 30.631C374.981 32.0111 376 33.636 376.675 35.4123C377.35 37.1885 377.668 39.0811 377.611 40.981C377.668 42.8809 377.35 44.7735 376.675 46.5498C376 48.326 374.981 49.951 373.677 51.331C371.01 53.9856 367.404 55.4753 363.646 55.4753C359.888 55.4753 356.282 53.9856 353.615 51.331C352.311 49.951 351.292 48.326 350.617 46.5498C349.942 44.7735 349.624 42.8809 349.681 40.981C349.624 39.0811 349.942 37.1885 350.617 35.4123C351.292 33.636 352.311 32.0111 353.615 30.631ZM357.401 48.1274C358.203 48.9768 359.169 49.6534 360.241 50.1158C361.313 50.5782 362.467 50.8167 363.634 50.8167C364.8 50.8167 365.955 50.5782 367.026 50.1158C368.098 49.6534 369.064 48.9768 369.866 48.1274C370.756 47.1707 371.446 46.0461 371.898 44.8192C372.35 43.5923 372.553 42.2876 372.497 40.981C372.553 39.6745 372.35 38.3697 371.898 37.1428C371.446 35.9159 370.756 34.7913 369.866 33.8346C369.064 32.9852 368.098 32.3086 367.026 31.8462C365.955 31.3838 364.8 31.1454 363.634 31.1454C362.467 31.1454 361.313 31.3838 360.241 31.8462C359.169 32.3086 358.203 32.9852 357.401 33.8346C356.512 34.7913 355.821 35.9159 355.369 37.1428C354.918 38.3697 354.714 39.6745 354.771 40.981C354.721 42.2852 354.93 43.5863 355.386 44.8088C355.841 46.0314 356.535 47.151 357.426 48.1028L357.401 48.1274Z" fill="#E1E1E1"/>
<path d="M405.81 54.5839H400.893V50.8135H400.746C399.871 52.2455 398.632 53.4191 397.156 54.2142C395.625 55.1038 393.886 55.5714 392.116 55.5696C390.679 55.6681 389.239 55.4401 387.902 54.9024C386.565 54.3648 385.367 53.5314 384.396 52.4646C382.534 50.1034 381.598 47.1406 381.766 44.1353V27.3782H386.855V43.1989C386.855 48.2753 389.092 50.8135 393.567 50.8135C394.561 50.8446 395.548 50.6372 396.446 50.2085C397.344 49.7799 398.127 49.1425 398.73 48.3492C400.049 46.6736 400.752 44.5938 400.721 42.4596V27.3782H405.81V54.5839Z" fill="#E1E1E1"/>
<path d="M423.094 55.4711C421.368 55.4769 419.661 55.1076 418.09 54.3886C416.52 53.6697 415.124 52.6182 413.998 51.3065C411.449 48.4847 410.084 44.7863 410.187 40.9811C410.084 37.176 411.449 33.4776 413.998 30.6558C415.124 29.3441 416.52 28.2926 418.09 27.5736C419.661 26.8547 421.368 26.4854 423.094 26.4911C425.028 26.4605 426.939 26.9181 428.651 27.8218C430.155 28.5804 431.428 29.7292 432.339 31.1486H432.56L432.339 27.3783V14.7858H437.428V54.584H432.511V50.8136H432.289C431.379 52.2331 430.105 53.3819 428.601 54.1404C426.905 55.0361 425.012 55.4935 423.094 55.4711ZM423.93 50.8136C425.081 50.8304 426.221 50.6018 427.277 50.1429C428.332 49.6841 429.278 49.0055 430.052 48.1522C431.781 46.1791 432.664 43.6026 432.511 40.9811C432.664 38.3597 431.781 35.7831 430.052 33.8101C429.273 32.9521 428.324 32.2667 427.266 31.7976C426.207 31.3286 425.063 31.0864 423.906 31.0864C422.748 31.0864 421.604 31.3286 420.545 31.7976C419.487 32.2667 418.538 32.9521 417.759 33.8101C416.9 34.7805 416.241 35.9113 415.819 37.1376C415.397 38.364 415.221 39.6617 415.301 40.9565C415.221 42.2512 415.397 43.549 415.819 44.7753C416.241 46.0016 416.9 47.1325 417.759 48.1029C418.534 48.9715 419.486 49.663 420.551 50.1307C421.615 50.5984 422.768 50.8313 423.93 50.8136Z" fill="#E1E1E1"/>
</svg>
