<svg width="312" height="79" viewBox="0 0 312 79" fill="none" xmlns="http://www.w3.org/2000/svg">
<g clip-path="url(#clip0_177_41)">
<path d="M23.3074 8.13996C20.2536 4.50326 17.6239 0.809736 17.0867 0.0426177C17.0301 -0.0142059 16.9453 -0.0142059 16.8887 0.0426177C16.3515 0.809736 13.7218 4.50326 10.668 8.13996C-15.5439 41.6941 14.7963 64.3384 14.7963 64.3384L15.0508 64.5089C15.277 68.0034 15.8425 73.0324 15.8425 73.0324H16.9735H18.1046C18.1046 73.0324 18.6701 68.0318 18.8963 64.5089L19.1508 64.31C19.1791 64.3384 49.5194 41.6941 23.3074 8.13996ZM16.9735 63.8553C16.9735 63.8553 15.6163 62.6905 15.2487 62.0937V62.0372L16.8887 25.4995C16.8887 25.3859 17.0584 25.3859 17.0584 25.4995L18.6984 62.0372V62.0937C18.3308 62.6905 16.9735 63.8553 16.9735 63.8553Z" fill="#00684A"/>
<path d="M73.7535 56.1491L61.1104 25.3764L61.0821 25.2914H51.2453V27.3599H52.8328C53.3147 27.3599 53.7682 27.5583 54.1085 27.8983C54.4486 28.2383 54.6187 28.6918 54.6187 29.1735L54.3353 60.1443C54.3353 61.1077 53.5417 61.9011 52.5777 61.9295L50.9619 61.9579V63.998H60.5436V61.9579L59.5513 61.9295C58.5875 61.9011 57.7936 61.1077 57.7936 60.1443V30.9586L71.5709 63.998C71.7691 64.4796 72.2226 64.7914 72.7331 64.7914C73.2433 64.7914 73.6969 64.4796 73.8953 63.998L87.3606 31.6952L87.5591 60.1443C87.5591 61.1361 86.7652 61.9295 85.7731 61.9579H84.7525V63.998H95.9782V61.9579H94.4474C93.4837 61.9579 92.6898 61.1361 92.6615 60.1727L92.5765 29.2016C92.5765 28.2099 93.3701 27.4166 94.3342 27.3882L95.9782 27.3599V25.2914H86.3966L73.7535 56.1491Z" fill="#00684A"/>
<path d="M161.908 61.42C161.596 61.1085 161.425 60.684 161.425 60.1747V45.0042C161.425 42.1173 160.573 39.853 158.867 38.2397C157.191 36.6265 154.86 35.8058 151.961 35.8058C147.896 35.8058 144.685 37.4475 142.44 40.6739C142.411 40.7305 142.326 40.7589 142.241 40.7589C142.155 40.7589 142.099 40.7021 142.099 40.6174L141.047 36.5699H139.285L134.766 39.1457V40.5606H135.931C136.471 40.5606 136.926 40.7021 137.239 40.9851C137.551 41.2682 137.722 41.6927 137.722 42.2872V60.1463C137.722 60.6558 137.551 61.0804 137.239 61.3916C136.926 61.703 136.5 61.8727 135.988 61.8727H134.851V63.9389H145.253V61.8727H144.117C143.605 61.8727 143.179 61.703 142.866 61.3916C142.553 61.0804 142.383 60.6558 142.383 60.1463V48.3156C142.383 46.8155 142.724 45.3156 143.349 43.8439C144.003 42.4003 144.969 41.1835 146.248 40.2494C147.527 39.3153 149.062 38.8626 150.824 38.8626C152.813 38.8626 154.32 39.4853 155.258 40.7305C156.196 41.9757 156.679 43.589 156.679 45.5137V60.1179C156.679 60.6274 156.508 61.052 156.196 61.3634C155.883 61.6746 155.457 61.8445 154.945 61.8445H153.808V63.9105H164.211V61.8445H163.074C162.647 61.9011 162.249 61.7311 161.908 61.42Z" fill="#00684A"/>
<path d="M256.946 27.625C254.07 26.0882 250.857 25.2914 247.389 25.2914H233.858V27.3689H235.183C235.691 27.3689 236.142 27.5681 236.593 28.0234C237.016 28.4502 237.241 28.9342 237.241 29.4463V60.0681C237.241 60.5802 237.016 61.0642 236.593 61.491C236.17 61.9178 235.691 62.1454 235.183 62.1454H233.858V64.223H247.389C250.857 64.223 254.07 63.4262 256.946 61.8894C259.821 60.3526 262.161 58.0758 263.852 55.1733C265.544 52.2705 266.417 48.77 266.417 44.7856C266.417 40.8015 265.544 37.3295 263.852 34.3983C262.133 31.4386 259.821 29.1618 256.946 27.625ZM260.977 44.7288C260.977 48.3716 260.329 51.4449 259.06 53.9209C257.792 56.3969 256.1 58.2466 254.014 59.4418C251.928 60.6373 249.616 61.235 247.136 61.235H244.401C243.894 61.235 243.443 61.0358 242.992 60.5802C242.569 60.1534 242.344 59.6697 242.344 59.1574V30.2718C242.344 29.7594 242.541 29.3042 242.992 28.8487C243.415 28.4218 243.894 28.1942 244.401 28.1942H247.136C249.616 28.1942 251.928 28.7918 254.014 29.9871C256.1 31.1823 257.792 33.0322 259.06 35.5082C260.329 37.984 260.977 41.086 260.977 44.7288Z" fill="#00684A"/>
<path d="M298.402 46.8064C297.15 45.3548 294.735 44.1312 291.895 43.4764C295.817 41.5128 297.832 38.7524 297.832 35.1951C297.832 33.2599 297.323 31.5239 296.298 30.0439C295.276 28.5642 293.826 27.3689 291.98 26.5436C290.132 25.7183 287.971 25.2914 285.528 25.2914H270.212V27.3689H271.434C271.945 27.3689 272.4 27.5681 272.854 28.0234C273.281 28.4502 273.508 28.9342 273.508 29.4463V60.0681C273.508 60.5802 273.281 61.0642 272.854 61.491C272.428 61.9178 271.945 62.1454 271.434 62.1454H270.098V64.223H286.723C289.251 64.223 291.609 63.7962 293.741 62.9423C295.873 62.0886 297.578 60.8366 298.801 59.1858C300.049 57.5353 300.675 55.5146 300.675 53.1809C300.647 50.6765 299.908 48.5421 298.402 46.8064ZM279.334 60.6086C278.907 60.1818 278.68 59.6982 278.68 59.1858V45.4404H286.581C289.364 45.4404 291.496 46.1516 292.974 47.5745C294.452 48.9976 295.191 50.8473 295.191 53.1241C295.191 54.4901 294.848 55.8277 294.226 57.0514C293.572 58.3037 292.603 59.2997 291.298 60.0681C290.018 60.8365 288.427 61.235 286.581 61.235H280.754C280.243 61.2634 279.788 61.0358 279.334 60.6086ZM278.708 42.5088V30.3002C278.708 29.7878 278.907 29.3326 279.362 28.8771C279.788 28.4502 280.271 28.2226 280.783 28.2226H284.534C287.232 28.2226 289.223 28.9058 290.474 30.2147C291.723 31.5523 292.348 33.2599 292.348 35.3659C292.348 37.5287 291.751 39.2647 290.587 40.5739C289.421 41.8544 287.66 42.5088 285.33 42.5088H278.708Z" fill="#00684A"/>
<path d="M122.308 37.6208C120.137 36.4298 117.711 35.8058 115.089 35.8058C112.466 35.8058 110.013 36.4014 107.87 37.6208C105.698 38.812 103.978 40.5421 102.709 42.726C101.44 44.9098 100.791 47.4625 100.791 50.2986C100.791 53.1346 101.44 55.6874 102.709 57.8712C103.978 60.0551 105.698 61.7851 107.87 62.9764C110.041 64.1674 112.466 64.7914 115.089 64.7914C117.711 64.7914 120.165 64.1958 122.308 62.9764C124.48 61.7851 126.2 60.0551 127.469 57.8712C128.738 55.6874 129.387 53.1346 129.387 50.2986C129.387 47.4625 128.738 44.9098 127.469 42.726C126.2 40.5421 124.48 38.8405 122.308 37.6208ZM124.395 50.2986C124.395 53.7871 123.549 56.6231 121.857 58.6652C120.193 60.7073 117.909 61.7567 115.089 61.7567C112.269 61.7567 109.985 60.7073 108.321 58.6652C106.629 56.6231 105.783 53.7871 105.783 50.2986C105.783 46.8101 106.629 43.974 108.321 41.932C109.985 39.8899 112.269 38.8405 115.089 38.8405C117.909 38.8405 120.193 39.8899 121.857 41.932C123.549 44.0022 124.395 46.8101 124.395 50.2986Z" fill="#00684A"/>
<path d="M222.25 37.6208C220.079 36.4298 217.653 35.8058 215.031 35.8058C212.408 35.8058 209.955 36.4014 207.811 37.6208C205.64 38.812 203.92 40.5421 202.651 42.726C201.382 44.9098 200.733 47.4625 200.733 50.2986C200.733 53.1346 201.382 55.6874 202.651 57.8712C203.92 60.0551 205.64 61.7851 207.811 62.9764C209.983 64.1674 212.408 64.7914 215.031 64.7914C217.653 64.7914 220.107 64.1958 222.25 62.9764C224.422 61.7851 226.142 60.0551 227.411 57.8712C228.68 55.6874 229.328 53.1346 229.328 50.2986C229.328 47.4625 228.68 44.9098 227.411 42.726C226.142 40.5421 224.393 38.8405 222.25 37.6208ZM224.337 50.2986C224.337 53.7871 223.491 56.6231 221.799 58.6652C220.135 60.7073 217.851 61.7567 215.031 61.7567C212.211 61.7567 209.926 60.7073 208.263 58.6652C206.571 56.6231 205.725 53.7871 205.725 50.2986C205.725 46.7817 206.571 43.974 208.263 41.932C209.926 39.8899 212.211 38.8405 215.031 38.8405C217.851 38.8405 220.135 39.8899 221.799 41.932C223.463 44.0022 224.337 46.8101 224.337 50.2986Z" fill="#00684A"/>
<path d="M181.945 35.8058C179.673 35.8058 177.6 36.29 175.725 37.2588C173.851 38.2275 172.374 39.5384 171.323 41.2193C170.272 42.8717 169.733 44.724 169.733 46.6899C169.733 48.4563 170.13 50.0803 170.954 51.5336C171.749 52.9297 172.828 54.0977 174.192 55.0664L170.13 60.5942C169.619 61.2779 169.562 62.1895 169.931 62.9304C170.329 63.6996 171.067 64.1557 171.92 64.1557H173.084C171.948 64.925 171.039 65.8366 170.414 66.9193C169.676 68.1446 169.307 69.4265 169.307 70.7371C169.307 73.1876 170.386 75.2106 172.516 76.7207C174.618 78.2308 177.571 79 181.292 79C183.876 79 186.347 78.5726 188.591 77.7463C190.863 76.9202 192.709 75.6948 194.072 74.0995C195.464 72.5038 196.174 70.5664 196.174 68.3438C196.174 66.0077 195.322 64.3549 193.334 62.7596C191.63 61.4203 188.96 60.7081 185.637 60.7081H174.277C174.249 60.7081 174.22 60.6794 174.22 60.6794C174.22 60.6794 174.192 60.6226 174.22 60.5942L177.174 56.6052C177.969 56.9755 178.707 57.2034 179.361 57.3458C180.042 57.4884 180.809 57.5453 181.661 57.5453C184.047 57.5453 186.205 57.061 188.08 56.0923C189.954 55.1236 191.459 53.813 192.539 52.1318C193.618 50.4793 194.157 48.6274 194.157 46.6615C194.157 44.5529 193.135 40.7063 190.352 38.7404C190.352 38.712 190.38 38.712 190.38 38.712L196.486 39.3957V36.575H186.716C185.183 36.0621 183.592 35.8058 181.945 35.8058ZM185.353 53.6135C184.274 54.1832 183.109 54.4967 181.945 54.4967C180.042 54.4967 178.367 53.813 176.946 52.4737C175.527 51.1346 174.816 49.1687 174.816 46.6615C174.816 44.1539 175.527 42.188 176.946 40.849C178.367 39.5097 180.042 38.826 181.945 38.826C183.138 38.826 184.274 39.111 185.353 39.7092C186.432 40.2789 187.313 41.1624 188.023 42.3304C188.704 43.4986 189.074 44.9519 189.074 46.6615C189.074 48.3995 188.733 49.8524 188.023 50.9923C187.341 52.1602 186.432 53.0437 185.353 53.6135ZM177.656 64.127H185.353C187.483 64.127 188.847 64.5544 189.755 65.4663C190.664 66.3779 191.119 67.603 191.119 69.0278C191.119 71.1077 190.295 72.8173 188.648 74.0995C187 75.3817 184.785 76.037 182.059 76.037C179.673 76.037 177.685 75.4956 176.236 74.4698C174.788 73.4442 174.049 71.877 174.049 69.8826C174.049 68.6289 174.39 67.4606 175.072 66.4351C175.754 65.4092 176.577 64.6684 177.656 64.127Z" fill="#00684A"/>
<path d="M306.437 63.7475C305.876 63.4398 305.454 62.9922 305.117 62.4608C304.809 61.9016 304.639 61.3142 304.639 60.6708C304.639 60.0274 304.809 59.4122 305.117 58.8808C305.426 58.3213 305.876 57.9018 306.437 57.5941C307 57.2866 307.617 57.1187 308.319 57.1187C309.022 57.1187 309.639 57.2866 310.202 57.5941C310.763 57.9018 311.185 58.3494 311.522 58.8808C311.83 59.4401 312 60.0274 312 60.6708C312 61.3142 311.83 61.9294 311.522 62.4608C311.213 63.0203 310.763 63.4398 310.202 63.7475C309.639 64.055 309.022 64.223 308.319 64.223C307.646 64.223 307 64.055 306.437 63.7475ZM309.894 63.3278C310.369 63.0763 310.709 62.6847 310.989 62.2372C311.241 61.7617 311.383 61.2301 311.383 60.643C311.383 60.0556 311.241 59.5242 310.989 59.0485C310.735 58.573 310.369 58.2096 309.894 57.9578C309.415 57.706 308.908 57.5662 308.319 57.5662C307.731 57.5662 307.224 57.706 306.745 57.9578C306.27 58.2096 305.93 58.6012 305.65 59.0485C305.398 59.5242 305.256 60.0556 305.256 60.643C305.256 61.2301 305.398 61.7617 305.65 62.2372C305.904 62.7126 306.27 63.0763 306.745 63.3278C307.224 63.5796 307.731 63.7194 308.319 63.7194C308.908 63.7194 309.444 63.5796 309.894 63.3278ZM306.802 62.3491V62.0974L306.859 62.0692H307.028C307.082 62.0692 307.139 62.0414 307.167 62.0132C307.224 61.9575 307.224 61.9294 307.224 61.8734V59.2724C307.224 59.2164 307.196 59.1604 307.167 59.1326C307.111 59.0766 307.082 59.0766 307.028 59.0766H306.859L306.802 59.0485V58.797L306.859 58.7688H308.319C308.741 58.7688 309.05 58.8527 309.302 59.0485C309.557 59.2443 309.667 59.496 309.667 59.8316C309.667 60.0834 309.585 60.3352 309.387 60.5029C309.192 60.6987 308.965 60.8106 308.685 60.8388L309.022 60.9504L309.667 61.9854C309.724 62.0692 309.78 62.0974 309.865 62.0974H310.032L310.061 62.1252V62.377L310.032 62.4048H309.163L309.107 62.377L308.206 60.8666H307.983V61.8734C307.983 61.9294 308.011 61.9854 308.039 62.0132C308.096 62.0692 308.124 62.0692 308.178 62.0692H308.348L308.404 62.0974V62.3491L308.348 62.377H306.859L306.802 62.3491ZM308.235 60.531C308.461 60.531 308.656 60.475 308.77 60.3352C308.88 60.2232 308.965 60.0274 308.965 59.8038C308.965 59.5799 308.908 59.4122 308.798 59.2724C308.685 59.1326 308.515 59.0766 308.319 59.0766H308.206C308.15 59.0766 308.096 59.1045 308.068 59.1326C308.011 59.1883 308.011 59.2164 308.011 59.2724V60.531H308.235Z" fill="#00684A"/>
</g>
<defs>
<clipPath id="clip0_177_41">
<rect width="312" height="79" fill="white"/>
</clipPath>
</defs>
</svg>
