<svg width="38" height="38" viewBox="0 0 38 38" fill="none" xmlns="http://www.w3.org/2000/svg">
<circle cx="19" cy="19" r="19" fill="#2EAD3D"/>
<mask id="mask0_75_13" style="mask-type:alpha" maskUnits="userSpaceOnUse" x="6" y="6" width="26" height="26">
<rect x="6.18604" y="6.18604" width="25.6279" height="25.6279" fill="#D9D9D9"/>
</mask>
<g mask="url(#mask0_75_13)">
<path d="M16.3839 21.8506L25.1622 13.0725C25.4461 12.7885 25.7807 12.6465 26.166 12.6465C26.5515 12.6465 26.8862 12.7885 27.17 13.0725C27.4541 13.3564 27.5961 13.693 27.5961 14.0822C27.5961 14.4714 27.4541 14.808 27.17 15.0921L17.3879 24.8859C17.1039 25.17 16.7692 25.312 16.3839 25.312C15.9986 25.312 15.6639 25.17 15.3798 24.8859L10.8183 20.3244C10.5343 20.0404 10.3942 19.7038 10.3982 19.3145C10.4021 18.9253 10.546 18.5888 10.8301 18.3049C11.114 18.0209 11.4505 17.8788 11.8397 17.8788C12.2289 17.8788 12.5656 18.0209 12.8496 18.3049L16.3839 21.8506Z" fill="white"/>
</g>
</svg>
