<svg width="608" height="131" viewBox="0 0 608 131" fill="none" xmlns="http://www.w3.org/2000/svg">
<path d="M177.394 96L163.971 72.2917H158.218V96H146.015V35.1604H168.852C173.559 35.1604 177.568 36.003 180.88 37.6881C184.192 39.3152 186.662 41.5523 188.289 44.3997C189.974 47.1889 190.817 50.3267 190.817 53.8132C190.817 57.8227 189.655 61.4545 187.33 64.7086C185.006 67.9045 181.549 70.1127 176.958 71.3329L191.514 96H177.394ZM158.218 63.1397H168.416C171.728 63.1397 174.198 62.3552 175.825 60.7863C177.452 59.1592 178.265 56.922 178.265 54.0747C178.265 51.2855 177.452 49.1355 175.825 47.6247C174.198 46.0558 171.728 45.2713 168.416 45.2713H158.218V63.1397ZM208.042 41.9591C205.892 41.9591 204.091 41.2909 202.638 39.9544C201.244 38.5598 200.546 36.8456 200.546 34.8118C200.546 32.778 201.244 31.0928 202.638 29.7563C204.091 28.3617 205.892 27.6644 208.042 27.6644C210.192 27.6644 211.965 28.3617 213.359 29.7563C214.812 31.0928 215.538 32.778 215.538 34.8118C215.538 36.8456 214.812 38.5598 213.359 39.9544C211.965 41.2909 210.192 41.9591 208.042 41.9591ZM214.057 47.7118V96H201.854V47.7118H214.057ZM244.591 96.7845C240.64 96.7845 237.095 96.0872 233.958 94.6926C230.82 93.2398 228.321 91.2932 226.462 88.8527C224.66 86.4121 223.672 83.7101 223.498 80.7465H235.788C236.02 82.606 236.921 84.1459 238.49 85.3661C240.117 86.5864 242.122 87.1966 244.504 87.1966C246.829 87.1966 248.63 86.7317 249.908 85.802C251.245 84.8722 251.913 83.681 251.913 82.2283C251.913 80.6594 251.1 79.4972 249.473 78.7418C247.904 77.9283 245.376 77.0566 241.889 76.1269C238.287 75.2553 235.323 74.3546 232.999 73.4249C230.733 72.4951 228.757 71.0715 227.072 69.1539C225.445 67.2363 224.631 64.6505 224.631 61.3964C224.631 58.7234 225.387 56.2828 226.897 54.0747C228.466 51.8666 230.674 50.1233 233.522 48.845C236.427 47.5666 239.827 46.9274 243.72 46.9274C249.473 46.9274 254.063 48.3801 257.492 51.2855C260.92 54.1328 262.808 57.997 263.157 62.8782H251.477C251.303 60.9606 250.489 59.4498 249.037 58.3457C247.642 57.1835 245.754 56.6024 243.371 56.6024C241.163 56.6024 239.449 57.0092 238.229 57.8227C237.066 58.6362 236.485 59.7694 236.485 61.2221C236.485 62.8491 237.299 64.0984 238.926 64.9701C240.553 65.7836 243.081 66.6262 246.509 67.4978C249.996 68.3694 252.872 69.2701 255.138 70.1998C257.404 71.1296 259.351 72.5823 260.978 74.558C262.663 76.4755 263.535 79.0323 263.593 82.2283C263.593 85.0175 262.808 87.5162 261.24 89.7243C259.729 91.9324 257.521 93.6757 254.615 94.954C251.768 96.1743 248.427 96.7845 244.591 96.7845ZM302.199 96L285.813 75.4296V96H273.61V31.4996H285.813V68.1951L302.025 47.7118H317.889L296.621 71.9431L318.063 96H302.199ZM376.659 96L363.236 72.2917H357.484V96H345.281V35.1604H368.117C372.824 35.1604 376.834 36.003 380.146 37.6881C383.458 39.3152 385.928 41.5523 387.555 44.3997C389.24 47.1889 390.082 50.3267 390.082 53.8132C390.082 57.8227 388.92 61.4545 386.596 64.7086C384.272 67.9045 380.814 70.1127 376.224 71.3329L390.78 96H376.659ZM357.484 63.1397H367.682C370.994 63.1397 373.463 62.3552 375.09 60.7863C376.717 59.1592 377.531 56.922 377.531 54.0747C377.531 51.2855 376.717 49.1355 375.09 47.6247C373.463 46.0558 370.994 45.2713 367.682 45.2713H357.484V63.1397ZM397.982 71.6816C397.982 66.8005 398.94 62.4714 400.858 58.6943C402.834 54.9173 405.478 52.0119 408.79 49.9781C412.16 47.9443 415.908 46.9274 420.034 46.9274C423.636 46.9274 426.774 47.6537 429.447 49.1064C432.178 50.5592 434.357 52.3896 435.984 54.5977V47.7118H448.274V96H435.984V88.9398C434.416 91.206 432.236 93.0946 429.447 94.6054C426.716 96.0581 423.549 96.7845 419.947 96.7845C415.879 96.7845 412.16 95.7385 408.79 93.6466C405.478 91.5547 402.834 88.6202 400.858 84.8432C398.94 81.008 397.982 76.6208 397.982 71.6816ZM435.984 71.8559C435.984 68.8924 435.403 66.3647 434.241 64.2728C433.079 62.1228 431.51 60.4957 429.534 59.3917C427.559 58.2295 425.438 57.6484 423.172 57.6484C420.905 57.6484 418.813 58.2004 416.896 59.3045C414.978 60.4086 413.409 62.0356 412.189 64.1856C411.027 66.2775 410.446 68.7762 410.446 71.6816C410.446 74.587 411.027 77.1438 412.189 79.3519C413.409 81.5019 414.978 83.158 416.896 84.3202C418.872 85.4824 420.963 86.0634 423.172 86.0634C425.438 86.0634 427.559 85.5114 429.534 84.4074C431.51 83.2452 433.079 81.6181 434.241 79.5262C435.403 77.3762 435.984 74.8195 435.984 71.8559ZM457.055 71.6816C457.055 66.8005 458.014 62.4714 459.931 58.6943C461.907 54.9173 464.58 52.0119 467.95 49.9781C471.32 47.9443 475.068 46.9274 479.194 46.9274C482.332 46.9274 485.324 47.6247 488.172 49.0193C491.019 50.3558 493.285 52.1571 494.971 54.4234V31.4996H507.348V96H494.971V88.8527C493.46 91.2351 491.339 93.1527 488.608 94.6054C485.877 96.0581 482.71 96.7845 479.107 96.7845C475.039 96.7845 471.32 95.7385 467.95 93.6466C464.58 91.5547 461.907 88.6202 459.931 84.8432C458.014 81.008 457.055 76.6208 457.055 71.6816ZM495.058 71.8559C495.058 68.8924 494.477 66.3647 493.314 64.2728C492.152 62.1228 490.583 60.4957 488.608 59.3917C486.632 58.2295 484.511 57.6484 482.245 57.6484C479.979 57.6484 477.887 58.2004 475.969 59.3045C474.051 60.4086 472.483 62.0356 471.262 64.1856C470.1 66.2775 469.519 68.7762 469.519 71.6816C469.519 74.587 470.1 77.1438 471.262 79.3519C472.483 81.5019 474.051 83.158 475.969 84.3202C477.945 85.4824 480.037 86.0634 482.245 86.0634C484.511 86.0634 486.632 85.5114 488.608 84.4074C490.583 83.2452 492.152 81.6181 493.314 79.5262C494.477 77.3762 495.058 74.8195 495.058 71.8559ZM516.128 71.6816C516.128 66.8005 517.087 62.4714 519.004 58.6943C520.98 54.9173 523.624 52.0119 526.936 49.9781C530.306 47.9443 534.054 46.9274 538.18 46.9274C541.783 46.9274 544.921 47.6537 547.594 49.1064C550.325 50.5592 552.504 52.3896 554.131 54.5977V47.7118H566.421V96H554.131V88.9398C552.562 91.206 550.383 93.0946 547.594 94.6054C544.863 96.0581 541.696 96.7845 538.093 96.7845C534.025 96.7845 530.306 95.7385 526.936 93.6466C523.624 91.5547 520.98 88.6202 519.004 84.8432C517.087 81.008 516.128 76.6208 516.128 71.6816ZM554.131 71.8559C554.131 68.8924 553.55 66.3647 552.388 64.2728C551.225 62.1228 549.656 60.4957 547.681 59.3917C545.705 58.2295 543.584 57.6484 541.318 57.6484C539.052 57.6484 536.96 58.2004 535.042 59.3045C533.125 60.4086 531.556 62.0356 530.335 64.1856C529.173 66.2775 528.592 68.7762 528.592 71.6816C528.592 74.587 529.173 77.1438 530.335 79.3519C531.556 81.5019 533.125 83.158 535.042 84.3202C537.018 85.4824 539.11 86.0634 541.318 86.0634C543.584 86.0634 545.705 85.5114 547.681 84.4074C549.656 83.2452 551.225 81.6181 552.388 79.5262C553.55 77.3762 554.131 74.8195 554.131 71.8559ZM590.542 55.2078C592.111 52.6511 594.144 50.6463 596.643 49.1936C599.2 47.7409 602.105 47.0145 605.359 47.0145V59.8275H602.134C598.299 59.8275 595.394 60.7281 593.418 62.5295C591.501 64.3309 590.542 67.4687 590.542 71.9431V96H578.339V47.7118H590.542V55.2078Z" fill="#262626"/>
<path d="M61.4993 67.481L34.4524 21.3706L88.5463 21.3707L61.4993 67.481Z" fill="#262626"/>
<path d="M61.4987 64.52L88.5457 110.63L34.4518 110.63L61.4987 64.52Z" fill="#262626"/>
<path d="M60.5371 65.8265L107.384 38.903L107.384 92.75L60.5371 65.8265Z" fill="#262626"/>
<path d="M62.4619 65.8263L15.6152 92.7498L15.6152 38.9029L62.4619 65.8263Z" fill="#262626"/>
</svg>
