<svg width="75" height="75" viewBox="0 0 75 75" fill="none" xmlns="http://www.w3.org/2000/svg">
<g id="Group 21">
<circle id="Ellipse 4" cx="37.3712" cy="37.3712" r="36.9975" fill="#434343" stroke="#BCBCBC" stroke-width="0.747424"/>
<g id="add_2">
<mask id="mask0_43_251" style="mask-type:alpha" maskUnits="userSpaceOnUse" x="16" y="16" width="42" height="42">
<rect id="Bounding box" x="16.4434" y="16.4434" width="41.1083" height="41.1083" fill="#D9D9D9"/>
</mask>
<g mask="url(#mask0_43_251)">
<path id="add_2_2" d="M36.9975 53.8691C36.2553 53.8691 35.6201 53.605 35.092 53.0769C34.5639 52.5488 34.2998 51.9136 34.2998 51.1713V39.7381H22.8237C22.0815 39.7381 21.4463 39.474 20.9182 38.9459C20.39 38.4178 20.126 37.7826 20.126 37.0403C20.126 36.2981 20.39 35.6629 20.9182 35.1348C21.4463 34.6067 22.0815 34.3426 22.8237 34.3426H34.257V22.8237C34.257 22.0815 34.521 21.4463 35.0492 20.9182C35.5773 20.39 36.2125 20.126 36.9547 20.126C37.6969 20.126 38.3321 20.39 38.8602 20.9182C39.3884 21.4463 39.6524 22.0815 39.6524 22.8237V34.2998H51.1713C51.9136 34.2998 52.5488 34.5639 53.0769 35.092C53.605 35.6201 53.8691 36.2553 53.8691 36.9975C53.8691 37.7398 53.605 38.3749 53.0769 38.9031C52.5488 39.4312 51.9136 39.6953 51.1713 39.6953H39.6953V51.1713C39.6953 51.9136 39.4312 52.5488 38.9031 53.0769C38.3749 53.605 37.7398 53.8691 36.9975 53.8691Z" fill="white"/>
</g>
</g>
</g>
</svg>
