<svg width="27" height="27" viewBox="0 0 27 27" fill="none" xmlns="http://www.w3.org/2000/svg">
<g id="credit_card">
<mask id="mask0_49_140" style="mask-type:alpha" maskUnits="userSpaceOnUse" x="0" y="0" width="27" height="27">
<rect id="Bounding box" width="27" height="27" fill="#D9D9D9"/>
</mask>
<g mask="url(#mask0_49_140)">
<path id="credit_card_2" d="M24.75 6.75V20.25C24.75 20.8687 24.5297 21.3984 24.0891 21.8391C23.6484 22.2797 23.1187 22.5 22.5 22.5H4.5C3.88125 22.5 3.35156 22.2797 2.91094 21.8391C2.47031 21.3984 2.25 20.8687 2.25 20.25V6.75C2.25 6.13125 2.47031 5.60156 2.91094 5.16094C3.35156 4.72031 3.88125 4.5 4.5 4.5H22.5C23.1187 4.5 23.6484 4.72031 24.0891 5.16094C24.5297 5.60156 24.75 6.13125 24.75 6.75ZM4.5 9H22.5V6.75H4.5V9ZM4.5 13.5V20.25H22.5V13.5H4.5Z" fill="#1C1B1F"/>
</g>
</g>
</svg>
