<svg width="19" height="21" viewBox="0 0 19 21" fill="none" xmlns="http://www.w3.org/2000/svg">
<path d="M2.75 18.375H6.125V12.75C6.125 12.4312 6.23281 12.1641 6.44844 11.9484C6.66406 11.7328 6.93125 11.625 7.25 11.625H11.75C12.0688 11.625 12.3359 11.7328 12.5516 11.9484C12.7672 12.1641 12.875 12.4312 12.875 12.75V18.375H16.25V8.25L9.5 3.1875L2.75 8.25V18.375ZM0.5 18.375V8.25C0.5 7.89375 0.579688 7.55625 0.739063 7.2375C0.898438 6.91875 1.11875 6.65625 1.4 6.45L8.15 1.3875C8.54375 1.0875 8.99375 0.9375 9.5 0.9375C10.0063 0.9375 10.4563 1.0875 10.85 1.3875L17.6 6.45C17.8813 6.65625 18.1016 6.91875 18.2609 7.2375C18.4203 7.55625 18.5 7.89375 18.5 8.25V18.375C18.5 18.9937 18.2797 19.5234 17.8391 19.9641C17.3984 20.4047 16.8687 20.625 16.25 20.625H11.75C11.4312 20.625 11.1641 20.5172 10.9484 20.3016C10.7328 20.0859 10.625 19.8188 10.625 19.5V13.875H8.375V19.5C8.375 19.8188 8.26719 20.0859 8.05156 20.3016C7.83594 20.5172 7.56875 20.625 7.25 20.625H2.75C2.13125 20.625 1.60156 20.4047 1.16094 19.9641C0.720313 19.5234 0.5 18.9937 0.5 18.375Z" fill="#1C1B1F"/>
</svg>
