<svg width="27" height="27" viewBox="0 0 27 27" fill="none" xmlns="http://www.w3.org/2000/svg">
<g id="home">
<mask id="mask0_43_194" style="mask-type:alpha" maskUnits="userSpaceOnUse" x="0" y="0" width="27" height="27">
<rect id="Bounding box" width="27" height="27" fill="#D9D9D9"/>
</mask>
<g mask="url(#mask0_43_194)">
<path id="home_2" d="M4.5 21.375V11.25C4.5 10.8938 4.57969 10.5563 4.73906 10.2375C4.89844 9.91875 5.11875 9.65625 5.4 9.45L12.15 4.3875C12.5437 4.0875 12.9937 3.9375 13.5 3.9375C14.0063 3.9375 14.4563 4.0875 14.85 4.3875L21.6 9.45C21.8813 9.65625 22.1016 9.91875 22.2609 10.2375C22.4203 10.5563 22.5 10.8938 22.5 11.25V21.375C22.5 21.9937 22.2797 22.5234 21.8391 22.9641C21.3984 23.4047 20.8687 23.625 20.25 23.625H16.875C16.5562 23.625 16.2891 23.5172 16.0734 23.3016C15.8578 23.0859 15.75 22.8188 15.75 22.5V16.875C15.75 16.5562 15.6422 16.2891 15.4266 16.0734C15.2109 15.8578 14.9438 15.75 14.625 15.75H12.375C12.0563 15.75 11.7891 15.8578 11.5734 16.0734C11.3578 16.2891 11.25 16.5562 11.25 16.875V22.5C11.25 22.8188 11.1422 23.0859 10.9266 23.3016C10.7109 23.5172 10.4437 23.625 10.125 23.625H6.75C6.13125 23.625 5.60156 23.4047 5.16094 22.9641C4.72031 22.5234 4.5 21.9937 4.5 21.375Z" fill="#262626"/>
</g>
</g>
</svg>
