<svg width="27" height="27" viewBox="0 0 27 27" fill="none" xmlns="http://www.w3.org/2000/svg">
<g id="notifications_active">
<mask id="mask0_43_197" style="mask-type:alpha" maskUnits="userSpaceOnUse" x="0" y="0" width="27" height="27">
<rect id="Bounding box" width="27" height="27" fill="#D9D9D9"/>
</mask>
<g mask="url(#mask0_43_197)">
<path id="notifications_active_2" d="M5.62506 21.375C5.30631 21.375 5.03912 21.2672 4.82349 21.0516C4.60787 20.8359 4.50006 20.5688 4.50006 20.25C4.50006 19.9312 4.60787 19.6641 4.82349 19.4484C5.03912 19.2328 5.30631 19.125 5.62506 19.125H6.75006V11.25C6.75006 9.69375 7.21881 8.31094 8.15631 7.10156C9.09381 5.89219 10.3126 5.1 11.8126 4.725V3.9375C11.8126 3.46875 11.9766 3.07031 12.3047 2.74219C12.6329 2.41406 13.0313 2.25 13.5001 2.25C13.9688 2.25 14.3672 2.41406 14.6954 2.74219C15.0235 3.07031 15.1876 3.46875 15.1876 3.9375V4.725C16.6876 5.1 17.9063 5.89219 18.8438 7.10156C19.7813 8.31094 20.2501 9.69375 20.2501 11.25V19.125H21.3751C21.6938 19.125 21.961 19.2328 22.1766 19.4484C22.3922 19.6641 22.5001 19.9312 22.5001 20.25C22.5001 20.5688 22.3922 20.8359 22.1766 21.0516C21.961 21.2672 21.6938 21.375 21.3751 21.375H5.62506ZM13.5001 24.75C12.8813 24.75 12.3516 24.5297 11.911 24.0891C11.4704 23.6484 11.2501 23.1187 11.2501 22.5H15.7501C15.7501 23.1187 15.5297 23.6484 15.0891 24.0891C14.6485 24.5297 14.1188 24.75 13.5001 24.75ZM9.00006 19.125H18.0001V11.25C18.0001 10.0125 17.5594 8.95313 16.6782 8.07188C15.7969 7.19063 14.7376 6.75 13.5001 6.75C12.2626 6.75 11.2032 7.19063 10.3219 8.07188C9.44068 8.95313 9.00006 10.0125 9.00006 11.25V19.125ZM3.37506 11.25C3.05631 11.25 2.78912 11.1281 2.57349 10.8844C2.35787 10.6406 2.26881 10.3594 2.30631 10.0406C2.45631 8.63438 2.85006 7.32656 3.48756 6.11719C4.12506 4.90781 4.94068 3.85312 5.93443 2.95312C6.17818 2.74687 6.45474 2.65312 6.76412 2.67188C7.07349 2.69063 7.32193 2.83125 7.50943 3.09375C7.69693 3.35625 7.77193 3.6375 7.73443 3.9375C7.69693 4.2375 7.55631 4.5 7.31256 4.725C6.58131 5.41875 5.98131 6.225 5.51256 7.14375C5.04381 8.0625 4.73443 9.05625 4.58443 10.125C4.54693 10.4438 4.41568 10.7109 4.19068 10.9266C3.96568 11.1422 3.69381 11.25 3.37506 11.25ZM23.6251 11.25C23.3063 11.25 23.0344 11.1422 22.8094 10.9266C22.5844 10.7109 22.4532 10.4438 22.4157 10.125C22.2657 9.05625 21.9563 8.0625 21.4876 7.14375C21.0188 6.225 20.4188 5.41875 19.6876 4.725C19.4438 4.5 19.3032 4.2375 19.2657 3.9375C19.2282 3.6375 19.3032 3.35625 19.4907 3.09375C19.6782 2.83125 19.9266 2.69063 20.236 2.67188C20.5454 2.65312 20.8219 2.74687 21.0657 2.95312C22.0594 3.85312 22.8751 4.90781 23.5126 6.11719C24.1501 7.32656 24.5438 8.63438 24.6938 10.0406C24.7313 10.3594 24.6422 10.6406 24.4266 10.8844C24.211 11.1281 23.9438 11.25 23.6251 11.25Z" fill="#1C1B1F"/>
</g>
</g>
</svg>
