<svg width="27" height="27" viewBox="0 0 27 27" fill="none" xmlns="http://www.w3.org/2000/svg">
<g id="settings">
<mask id="mask0_47_403" style="mask-type:alpha" maskUnits="userSpaceOnUse" x="0" y="0" width="27" height="27">
<rect id="Bounding box" width="27" height="27" fill="#D9D9D9"/>
</mask>
<g mask="url(#mask0_47_403)">
<path id="settings_2" d="M12.1782 24.75C11.6719 24.75 11.236 24.5813 10.8704 24.2438C10.5047 23.9063 10.2844 23.4938 10.2094 23.0063L9.95629 21.15C9.71254 21.0563 9.48285 20.9438 9.26723 20.8125C9.0516 20.6812 8.84066 20.5406 8.63441 20.3906L6.89066 21.1219C6.42191 21.3281 5.95316 21.3469 5.48441 21.1781C5.01566 21.0094 4.65004 20.7094 4.38754 20.2781L3.06566 17.9719C2.80316 17.5406 2.72816 17.0813 2.84066 16.5938C2.95316 16.1062 3.20629 15.7031 3.60004 15.3844L5.09066 14.2594C5.07191 14.1281 5.06254 14.0016 5.06254 13.8797V13.1203C5.06254 12.9984 5.07191 12.8719 5.09066 12.7406L3.60004 11.6156C3.20629 11.2969 2.95316 10.8938 2.84066 10.4062C2.72816 9.91875 2.80316 9.45937 3.06566 9.02813L4.38754 6.72188C4.65004 6.29063 5.01566 5.99062 5.48441 5.82187C5.95316 5.65313 6.42191 5.67188 6.89066 5.87813L8.63441 6.60938C8.84066 6.45937 9.05629 6.31875 9.28129 6.1875C9.50629 6.05625 9.73129 5.94375 9.95629 5.85L10.2094 3.99375C10.2844 3.50625 10.5047 3.09375 10.8704 2.75625C11.236 2.41875 11.6719 2.25 12.1782 2.25H14.8219C15.3282 2.25 15.7641 2.41875 16.1297 2.75625C16.4954 3.09375 16.7157 3.50625 16.7907 3.99375L17.0438 5.85C17.2875 5.94375 17.5172 6.05625 17.7329 6.1875C17.9485 6.31875 18.1594 6.45937 18.3657 6.60938L20.1094 5.87813C20.5782 5.67188 21.0469 5.65313 21.5157 5.82187C21.9844 5.99062 22.35 6.29063 22.6125 6.72188L23.9344 9.02813C24.1969 9.45937 24.2719 9.91875 24.1594 10.4062C24.0469 10.8938 23.7938 11.2969 23.4 11.6156L21.9094 12.7406C21.9282 12.8719 21.9375 12.9984 21.9375 13.1203V13.8797C21.9375 14.0016 21.9188 14.1281 21.8813 14.2594L23.3719 15.3844C23.7657 15.7031 24.0188 16.1062 24.1313 16.5938C24.2438 17.0813 24.1688 17.5406 23.9063 17.9719L22.5563 20.2781C22.2938 20.7094 21.9282 21.0094 21.4594 21.1781C20.9907 21.3469 20.5219 21.3281 20.0532 21.1219L18.3657 20.3906C18.1594 20.5406 17.9438 20.6812 17.7188 20.8125C17.4938 20.9438 17.2688 21.0563 17.0438 21.15L16.7907 23.0063C16.7157 23.4938 16.4954 23.9063 16.1297 24.2438C15.7641 24.5813 15.3282 24.75 14.8219 24.75H12.1782ZM12.375 22.5H14.5969L14.9907 19.5188C15.5719 19.3687 16.111 19.1484 16.6079 18.8578C17.1047 18.5672 17.5594 18.2156 17.9719 17.8031L20.7563 18.9563L21.8532 17.0438L19.4344 15.2156C19.5282 14.9531 19.5938 14.6766 19.6313 14.3859C19.6688 14.0953 19.6875 13.8 19.6875 13.5C19.6875 13.2 19.6688 12.9047 19.6313 12.6141C19.5938 12.3234 19.5282 12.0469 19.4344 11.7844L21.8532 9.95625L20.7563 8.04375L17.9719 9.225C17.5594 8.79375 17.1047 8.43281 16.6079 8.14219C16.111 7.85156 15.5719 7.63125 14.9907 7.48125L14.625 4.5H12.4032L12.0094 7.48125C11.4282 7.63125 10.8891 7.85156 10.3922 8.14219C9.89535 8.43281 9.44066 8.78438 9.02816 9.19688L6.24379 8.04375L5.14691 9.95625L7.56566 11.7562C7.47191 12.0375 7.40629 12.3187 7.36879 12.6C7.33129 12.8812 7.31254 13.1812 7.31254 13.5C7.31254 13.8 7.33129 14.0906 7.36879 14.3719C7.40629 14.6531 7.47191 14.9344 7.56566 15.2156L5.14691 17.0438L6.24379 18.9563L9.02816 17.775C9.44066 18.2063 9.89535 18.5672 10.3922 18.8578C10.8891 19.1484 11.4282 19.3687 12.0094 19.5188L12.375 22.5ZM13.5563 17.4375C14.6438 17.4375 15.5719 17.0531 16.3407 16.2844C17.1094 15.5156 17.4938 14.5875 17.4938 13.5C17.4938 12.4125 17.1094 11.4844 16.3407 10.7156C15.5719 9.94688 14.6438 9.5625 13.5563 9.5625C12.45 9.5625 11.5172 9.94688 10.7579 10.7156C9.99848 11.4844 9.61879 12.4125 9.61879 13.5C9.61879 14.5875 9.99848 15.5156 10.7579 16.2844C11.5172 17.0531 12.45 17.4375 13.5563 17.4375Z" fill="#1C1B1F"/>
</g>
</g>
</svg>
